<?xml version="1.0" encoding="UTF-8"?>
<svg xmlns="http://www.w3.org/2000/svg" version="1.1" width="200" height="200" viewBox="0 0 200 200"><rect x="0" y="0" width="200" height="200" fill="#ffffff"/><g transform="scale(5.405)"><g transform="translate(0,0)"><path fill-rule="evenodd" d="M8 0L8 1L9 1L9 0ZM10 0L10 2L11 2L11 3L8 3L8 4L9 4L9 6L8 6L8 7L9 7L9 8L8 8L8 9L7 9L7 8L4 8L4 9L3 9L3 8L2 8L2 9L0 9L0 10L1 10L1 11L3 11L3 12L0 12L0 14L2 14L2 13L3 13L3 14L4 14L4 13L3 13L3 12L5 12L5 13L7 13L7 12L6 12L6 11L7 11L7 10L8 10L8 14L6 14L6 15L2 15L2 16L1 16L1 17L2 17L2 18L1 18L1 19L0 19L0 21L1 21L1 22L0 22L0 23L1 23L1 24L2 24L2 25L1 25L1 26L0 26L0 27L1 27L1 28L0 28L0 29L1 29L1 28L3 28L3 29L4 29L4 27L5 27L5 26L4 26L4 25L3 25L3 24L2 24L2 23L5 23L5 24L6 24L6 25L7 25L7 24L6 24L6 23L7 23L7 22L6 22L6 23L5 23L5 22L4 22L4 19L5 19L5 18L6 18L6 19L8 19L8 20L6 20L6 21L8 21L8 23L9 23L9 21L8 21L8 20L10 20L10 19L12 19L12 20L11 20L11 21L10 21L10 22L14 22L14 21L17 21L17 20L18 20L18 19L19 19L19 21L18 21L18 23L19 23L19 22L21 22L21 23L22 23L22 24L23 24L23 25L21 25L21 26L19 26L19 25L20 25L20 24L19 24L19 25L16 25L16 23L17 23L17 22L16 22L16 23L13 23L13 25L12 25L12 26L11 26L11 27L12 27L12 26L13 26L13 25L14 25L14 27L13 27L13 29L14 29L14 30L13 30L13 32L12 32L12 31L10 31L10 29L12 29L12 28L9 28L9 27L10 27L10 26L9 26L9 25L11 25L11 24L12 24L12 23L10 23L10 24L9 24L9 25L8 25L8 26L6 26L6 27L7 27L7 28L5 28L5 29L8 29L8 30L9 30L9 31L8 31L8 33L10 33L10 32L11 32L11 33L12 33L12 34L8 34L8 35L11 35L11 36L9 36L9 37L13 37L13 36L14 36L14 37L17 37L17 36L18 36L18 37L19 37L19 33L17 33L17 32L16 32L16 31L15 31L15 32L16 32L16 34L15 34L15 33L14 33L14 34L15 34L15 36L14 36L14 35L12 35L12 34L13 34L13 32L14 32L14 30L17 30L17 31L18 31L18 32L21 32L21 31L19 31L19 30L17 30L17 29L18 29L18 28L17 28L17 27L20 27L20 28L19 28L19 29L20 29L20 30L21 30L21 29L22 29L22 28L23 28L23 29L24 29L24 31L23 31L23 30L22 30L22 32L25 32L25 34L26 34L26 35L25 35L25 36L24 36L24 35L22 35L22 36L21 36L21 37L22 37L22 36L24 36L24 37L26 37L26 35L27 35L27 32L26 32L26 31L28 31L28 33L29 33L29 34L30 34L30 33L31 33L31 35L32 35L32 36L30 36L30 35L28 35L28 37L32 37L32 36L33 36L33 37L34 37L34 35L33 35L33 33L34 33L34 34L36 34L36 35L35 35L35 37L37 37L37 36L36 36L36 35L37 35L37 28L36 28L36 27L37 27L37 17L36 17L36 16L37 16L37 13L36 13L36 12L37 12L37 8L36 8L36 9L34 9L34 8L33 8L33 9L34 9L34 10L32 10L32 9L31 9L31 10L30 10L30 11L29 11L29 9L30 9L30 8L29 8L29 2L28 2L28 1L29 1L29 0L27 0L27 1L26 1L26 2L28 2L28 4L27 4L27 3L24 3L24 0L22 0L22 1L21 1L21 2L20 2L20 1L19 1L19 2L20 2L20 3L17 3L17 4L15 4L15 2L13 2L13 1L15 1L15 0L13 0L13 1L12 1L12 0ZM16 0L16 2L17 2L17 0ZM11 1L11 2L12 2L12 1ZM21 2L21 4L22 4L22 5L21 5L21 7L22 7L22 6L23 6L23 8L22 8L22 9L21 9L21 8L18 8L18 5L19 5L19 4L18 4L18 5L16 5L16 6L15 6L15 4L14 4L14 3L13 3L13 4L14 4L14 6L13 6L13 7L12 7L12 6L11 6L11 8L14 8L14 6L15 6L15 7L16 7L16 6L17 6L17 9L16 9L16 8L15 8L15 10L17 10L17 9L18 9L18 11L15 11L15 12L14 12L14 11L13 11L13 12L12 12L12 10L11 10L11 9L10 9L10 10L9 10L9 9L8 9L8 10L9 10L9 14L8 14L8 15L6 15L6 16L5 16L5 17L6 17L6 18L7 18L7 17L8 17L8 18L9 18L9 17L10 17L10 16L11 16L11 14L10 14L10 13L11 13L11 12L12 12L12 13L13 13L13 12L14 12L14 14L12 14L12 17L11 17L11 18L13 18L13 21L14 21L14 19L15 19L15 20L16 20L16 19L18 19L18 18L19 18L19 19L21 19L21 20L20 20L20 21L21 21L21 20L22 20L22 17L21 17L21 15L22 15L22 16L24 16L24 17L23 17L23 19L25 19L25 18L26 18L26 19L27 19L27 20L26 20L26 21L25 21L25 20L23 20L23 22L24 22L24 24L25 24L25 25L26 25L26 26L27 26L27 27L26 27L26 28L27 28L27 29L28 29L28 28L29 28L29 27L31 27L31 28L32 28L32 27L34 27L34 28L33 28L33 32L34 32L34 33L35 33L35 32L36 32L36 30L35 30L35 29L36 29L36 28L35 28L35 27L36 27L36 26L35 26L35 27L34 27L34 26L32 26L32 24L33 24L33 25L35 25L35 23L36 23L36 22L35 22L35 21L36 21L36 19L34 19L34 18L35 18L35 15L36 15L36 13L35 13L35 12L36 12L36 11L35 11L35 10L34 10L34 13L35 13L35 15L34 15L34 14L33 14L33 11L32 11L32 12L31 12L31 11L30 11L30 12L29 12L29 14L30 14L30 15L31 15L31 17L32 17L32 18L30 18L30 16L28 16L28 13L27 13L27 15L26 15L26 14L25 14L25 13L24 13L24 12L25 12L25 11L26 11L26 10L25 10L25 9L26 9L26 8L25 8L25 7L26 7L26 6L27 6L27 8L28 8L28 6L27 6L27 4L25 4L25 5L26 5L26 6L25 6L25 7L24 7L24 5L23 5L23 4L24 4L24 3L22 3L22 2ZM11 3L11 5L12 5L12 3ZM9 6L9 7L10 7L10 6ZM19 6L19 7L20 7L20 6ZM23 8L23 10L24 10L24 8ZM2 9L2 10L3 10L3 11L6 11L6 10L7 10L7 9L6 9L6 10L5 10L5 9L4 9L4 10L3 10L3 9ZM13 9L13 10L14 10L14 9ZM19 9L19 12L18 12L18 14L17 14L17 13L16 13L16 12L15 12L15 13L16 13L16 14L17 14L17 17L18 17L18 16L20 16L20 14L22 14L22 15L25 15L25 17L24 17L24 18L25 18L25 17L26 17L26 18L27 18L27 17L28 17L28 16L26 16L26 15L25 15L25 14L24 14L24 13L23 13L23 12L24 12L24 11L23 11L23 12L22 12L22 13L20 13L20 10L21 10L21 11L22 11L22 10L21 10L21 9ZM27 11L27 12L28 12L28 11ZM30 12L30 14L31 14L31 15L32 15L32 16L33 16L33 18L32 18L32 19L30 19L30 20L27 20L27 21L26 21L26 22L25 22L25 21L24 21L24 22L25 22L25 23L26 23L26 22L27 22L27 21L29 21L29 23L28 23L28 24L27 24L27 26L28 26L28 24L29 24L29 26L30 26L30 24L31 24L31 23L30 23L30 22L31 22L31 21L32 21L32 19L33 19L33 20L34 20L34 19L33 19L33 18L34 18L34 16L33 16L33 15L32 15L32 14L31 14L31 12ZM19 13L19 14L20 14L20 13ZM14 14L14 15L13 15L13 18L14 18L14 17L15 17L15 18L16 18L16 16L15 16L15 14ZM8 15L8 17L9 17L9 16L10 16L10 15ZM2 16L2 17L4 17L4 16ZM6 16L6 17L7 17L7 16ZM19 17L19 18L20 18L20 17ZM3 18L3 19L1 19L1 21L2 21L2 22L3 22L3 19L4 19L4 18ZM28 18L28 19L29 19L29 18ZM33 21L33 22L32 22L32 23L33 23L33 22L34 22L34 21ZM2 25L2 26L1 26L1 27L2 27L2 26L3 26L3 27L4 27L4 26L3 26L3 25ZM15 25L15 28L16 28L16 29L17 29L17 28L16 28L16 27L17 27L17 26L16 26L16 25ZM8 26L8 27L9 27L9 26ZM23 27L23 28L24 28L24 27ZM27 27L27 28L28 28L28 27ZM8 28L8 29L9 29L9 28ZM34 28L34 29L35 29L35 28ZM29 29L29 32L32 32L32 29ZM25 30L25 31L26 31L26 30ZM30 30L30 31L31 31L31 30ZM34 30L34 31L35 31L35 30ZM21 33L21 34L24 34L24 33ZM16 35L16 36L17 36L17 35ZM0 0L0 7L7 7L7 0ZM1 1L1 6L6 6L6 1ZM2 2L2 5L5 5L5 2ZM30 0L30 7L37 7L37 0ZM31 1L31 6L36 6L36 1ZM32 2L32 5L35 5L35 2ZM0 30L0 37L7 37L7 30ZM1 31L1 36L6 36L6 31ZM2 32L2 35L5 35L5 32Z" fill="#000000"/></g></g></svg>
